<?xml version="1.0" encoding="utf-8"?><svg xmlns="http://www.w3.org/2000/svg" xmlns:xlink="http://www.w3.org/1999/xlink" width="1920" height="941" preserveAspectRatio="xMidYMid" viewBox="0 0 1920 941" style="z-index:1;margin-right:-2px;display:block;background-repeat-y:initial;background-repeat-x:initial;background-color:rgb(241, 242, 243);animation-play-state:paused" ><g transform="translate(960,470.5) scale(1,1) translate(-960,-470.5)" style="transform:matrix(1, 0, 0, 1, 0, 0);animation-play-state:paused" ><path d="M9.6 -41.69796276496527L9.6 0Z" stroke-width="19.2" stroke-linecap="round" stroke-linejoin="round" stroke="#f81616" transform="matrix(1,0,0,1,0,550.7435913085938)" opacity="0.5661" style="transform:matrix(1, 0, 0, 1, 0, 550.744);opacity:0.5661;animation-play-state:paused" ></path>
<path d="M9.6 -16.285233676569078L9.6 0Z" stroke-width="19.2" stroke-linecap="round" stroke-linejoin="round" stroke="#1ef516" transform="matrix(1,0,0,1,0,97.5325698852539)" opacity="1" style="transform:matrix(1, 0, 0, 1, 0, 97.5326);animation-play-state:paused" ></path>
<path d="M9.6 -120.50549027344277L9.6 0Z" stroke-width="19.2" stroke-linecap="round" stroke-linejoin="round" stroke="#f81616" transform="matrix(1,0,0,1,0,206.02914428710938)" opacity="1" style="transform:matrix(1, 0, 0, 1, 0, 206.029);animation-play-state:paused" ></path>
<path d="M48 -49.93632364577388L48 0Z" stroke-width="19.2" stroke-linecap="round" stroke-linejoin="round" stroke="#1ef516" transform="matrix(1,0,0,1,0,469.344482421875)" opacity="1" style="transform:matrix(1, 0, 0, 1, 0, 469.344);animation-play-state:paused" ></path>
<path d="M48 -88.36172836020887L48 0Z" stroke-width="19.2" stroke-linecap="round" stroke-linejoin="round" stroke="#1ef516" transform="matrix(1,0,0,1,0,105.38842010498047)" opacity="1" style="transform:matrix(1, 0, 0, 1, 0, 105.388);animation-play-state:paused" ></path>
<path d="M48 -104.91281793669259L48 0Z" stroke-width="19.2" stroke-linecap="round" stroke-linejoin="round" stroke="#f81616" transform="matrix(1,0,0,1,0,241.68338012695312)" opacity="1" style="transform:matrix(1, 0, 0, 1, 0, 241.683);animation-play-state:paused" ></path>
<path d="M86.39999999999999 -26.198524062700017L86.39999999999999 0Z" stroke-width="19.2" stroke-linecap="round" stroke-linejoin="round" stroke="#f81616" transform="matrix(1,0,0,1,0,344.9989318847656)" opacity="1" style="transform:matrix(1, 0, 0, 1, 0, 344.999);animation-play-state:paused" ></path>
<path d="M86.39999999999999 -88.15569042343486L86.39999999999999 0Z" stroke-width="19.2" stroke-linecap="round" stroke-linejoin="round" stroke="#f81616" transform="matrix(1,0,0,1,0,126.72083282470703)" opacity="1" style="transform:matrix(1, 0, 0, 1, 0, 126.721);animation-play-state:paused" ></path>
<path d="M86.39999999999999 -129.60688673295772L86.39999999999999 0Z" stroke-width="19.2" stroke-linecap="round" stroke-linejoin="round" stroke="#1ef516" transform="matrix(1,0,0,1,0,40.08650588989258)" opacity="1" style="transform:matrix(1, 0, 0, 1, 0, 40.0865);animation-play-state:paused" ></path>
<path d="M124.79999999999998 -28.43040857500455L124.79999999999998 0Z" stroke-width="19.2" stroke-linecap="round" stroke-linejoin="round" stroke="#f81616" transform="matrix(1,0,0,1,0,205.1646728515625)" opacity="1" style="transform:matrix(1, 0, 0, 1, 0, 205.165);animation-play-state:paused" ></path>
<path d="M124.79999999999998 -45.79776661951473L124.79999999999998 0Z" stroke-width="19.2" stroke-linecap="round" stroke-linejoin="round" stroke="#f81616" transform="matrix(1,0,0,1,0,497.46240234375)" opacity="0.995054" style="transform:matrix(1, 0, 0, 1, 0, 497.462);opacity:0.995054;animation-play-state:paused" ></path>
<path d="M124.79999999999998 -65.99643241932063L124.79999999999998 0Z" stroke-width="19.2" stroke-linecap="round" stroke-linejoin="round" stroke="#f81616" transform="matrix(1,0,0,1,0,167.66390991210938)" opacity="1" style="transform:matrix(1, 0, 0, 1, 0, 167.664);animation-play-state:paused" ></path>
<path d="M163.2 -5.566854407334176L163.2 0Z" stroke-width="19.2" stroke-linecap="round" stroke-linejoin="round" stroke="#f81616" transform="matrix(1,0,0,1,0,286.70404052734375)" opacity="1" style="transform:matrix(1, 0, 0, 1, 0, 286.704);animation-play-state:paused" ></path>
<path d="M163.2 -15.26618601733935L163.2 0Z" stroke-width="19.2" stroke-linecap="round" stroke-linejoin="round" stroke="#1ef516" transform="matrix(1,0,0,1,0,395.6472473144531)" opacity="1" style="transform:matrix(1, 0, 0, 1, 0, 395.647);animation-play-state:paused" ></path>
<path d="M163.2 -123.0895053713648L163.2 0Z" stroke-width="19.2" stroke-linecap="round" stroke-linejoin="round" stroke="#1ef516" transform="matrix(1,0,0,1,0,323.68963623046875)" opacity="1" style="transform:matrix(1, 0, 0, 1, 0, 323.69);animation-play-state:paused" ></path>
<path d="M201.6 -43.99363571563299L201.6 0Z" stroke-width="19.2" stroke-linecap="round" stroke-linejoin="round" stroke="#f81616" transform="matrix(1,0,0,1,0,243.50384521484375)" opacity="1" style="transform:matrix(1, 0, 0, 1, 0, 243.504);animation-play-state:paused" ></path>
<path d="M201.6 -87.83541128358775L201.6 0Z" stroke-width="19.2" stroke-linecap="round" stroke-linejoin="round" stroke="#f81616" transform="matrix(1,0,0,1,0,440.3876953125)" opacity="1" style="transform:matrix(1, 0, 0, 1, 0, 440.388);animation-play-state:paused" ></path>
<path d="M201.6 -9.39818391737208L201.6 0Z" stroke-width="19.2" stroke-linecap="round" stroke-linejoin="round" stroke="#f81616" transform="matrix(1,0,0,1,0,211.85008239746094)" opacity="1" style="transform:matrix(1, 0, 0, 1, 0, 211.85);animation-play-state:paused" ></path>
<path d="M239.99999999999997 -69.6259089313753L239.99999999999997 0Z" stroke-width="19.2" stroke-linecap="round" stroke-linejoin="round" stroke="#1ef516" transform="matrix(1,0,0,1,0,292.0523376464844)" opacity="1" style="transform:matrix(1, 0, 0, 1, 0, 292.052);animation-play-state:paused" ></path>
<path d="M239.99999999999997 -70.7280517928375L239.99999999999997 0Z" stroke-width="19.2" stroke-linecap="round" stroke-linejoin="round" stroke="#1ef516" transform="matrix(1,0,0,1,0,375.6244201660156)" opacity="1" style="transform:matrix(1, 0, 0, 1, 0, 375.624);animation-play-state:paused" ></path>
<path d="M239.99999999999997 -65.02869202330476L239.99999999999997 0Z" stroke-width="19.2" stroke-linecap="round" stroke-linejoin="round" stroke="#1ef516" transform="matrix(1,0,0,1,0,547.46923828125)" opacity="0.592461" style="transform:matrix(1, 0, 0, 1, 0, 547.469);opacity:0.592461;animation-play-state:paused" ></path>
<path d="M278.40000000000003 -51.79932889779593L278.40000000000003 0Z" stroke-width="19.2" stroke-linecap="round" stroke-linejoin="round" stroke="#1ef516" transform="matrix(1,0,0,1,0,463.0401611328125)" opacity="1" style="transform:matrix(1, 0, 0, 1, 0, 463.04);animation-play-state:paused" ></path>
<path d="M278.40000000000003 -14.637195144678117L278.40000000000003 0Z" stroke-width="19.2" stroke-linecap="round" stroke-linejoin="round" stroke="#f81616" transform="matrix(1,0,0,1,0,576.1224975585938)" opacity="0.361781" style="transform:matrix(1, 0, 0, 1, 0, 576.122);opacity:0.361781;animation-play-state:paused" ></path>
<path d="M278.40000000000003 -22.939161699723627L278.40000000000003 0Z" stroke-width="19.2" stroke-linecap="round" stroke-linejoin="round" stroke="#f81616" transform="matrix(1,0,0,1,0,140.45452880859375)" opacity="1" style="transform:matrix(1, 0, 0, 1, 0, 140.455);animation-play-state:paused" ></path>
<path d="M316.8 -159.29260855606844L316.8 0Z" stroke-width="19.2" stroke-linecap="round" stroke-linejoin="round" stroke="#1ef516" transform="matrix(1,0,0,1,0,95.61206817626953)" opacity="1" style="transform:matrix(1, 0, 0, 1, 0, 95.6121);animation-play-state:paused" ></path>
<path d="M316.8 -11.559143091995793L316.8 0Z" stroke-width="19.2" stroke-linecap="round" stroke-linejoin="round" stroke="#f81616" transform="matrix(1,0,0,1,0,61.00572967529297)" opacity="1" style="transform:matrix(1, 0, 0, 1, 0, 61.0057);animation-play-state:paused" ></path>
<path d="M316.8 -85.51850138259033L316.8 0Z" stroke-width="19.2" stroke-linecap="round" stroke-linejoin="round" stroke="#1ef516" transform="matrix(1,0,0,1,0,452.7723388671875)" opacity="1" style="transform:matrix(1, 0, 0, 1, 0, 452.772);animation-play-state:paused" ></path>
<path d="M355.2 -31.985005687296507L355.2 0Z" stroke-width="19.2" stroke-linecap="round" stroke-linejoin="round" stroke="#f81616" transform="matrix(1,0,0,1,0,70.74905395507812)" opacity="1" style="transform:matrix(1, 0, 0, 1, 0, 70.7491);animation-play-state:paused" ></path>
<path d="M355.2 -30.074423446647415L355.2 0Z" stroke-width="19.2" stroke-linecap="round" stroke-linejoin="round" stroke="#f81616" transform="matrix(1,0,0,1,0,159.53851318359375)" opacity="1" style="transform:matrix(1, 0, 0, 1, 0, 159.539);animation-play-state:paused" ></path>
<path d="M355.2 -75.53764867586142L355.2 0Z" stroke-width="19.2" stroke-linecap="round" stroke-linejoin="round" stroke="#1ef516" transform="matrix(1,0,0,1,0,413.86077880859375)" opacity="1" style="transform:matrix(1, 0, 0, 1, 0, 413.861);animation-play-state:paused" ></path>
<path d="M393.6 -23.306236179807456L393.6 0Z" stroke-width="19.2" stroke-linecap="round" stroke-linejoin="round" stroke="#1ef516" transform="matrix(1,0,0,1,0,460.5205993652344)" opacity="1" style="transform:matrix(1, 0, 0, 1, 0, 460.521);animation-play-state:paused" ></path>
<path d="M393.6 -55.79647472879151L393.6 0Z" stroke-width="19.2" stroke-linecap="round" stroke-linejoin="round" stroke="#f81616" transform="matrix(1,0,0,1,0,11.699155807495117)" opacity="1" style="transform:matrix(1, 0, 0, 1, 0, 11.6992);animation-play-state:paused" ></path>
<path d="M393.6 -109.95412339226459L393.6 0Z" stroke-width="19.2" stroke-linecap="round" stroke-linejoin="round" stroke="#1ef516" transform="matrix(1,0,0,1,0,363.60894775390625)" opacity="1" style="transform:matrix(1, 0, 0, 1, 0, 363.609);animation-play-state:paused" ></path>
<path d="M432 -71.57182112726878L432 0Z" stroke-width="19.2" stroke-linecap="round" stroke-linejoin="round" stroke="#1ef516" transform="matrix(1,0,0,1,0,535.2959594726562)" opacity="0.690465" style="transform:matrix(1, 0, 0, 1, 0, 535.296);opacity:0.690465;animation-play-state:paused" ></path>
<path d="M432 -19.70496991070104L432 0Z" stroke-width="19.2" stroke-linecap="round" stroke-linejoin="round" stroke="#1ef516" transform="matrix(1,0,0,1,0,81.98848724365234)" opacity="1" style="transform:matrix(1, 0, 0, 1, 0, 81.9885);animation-play-state:paused" ></path>
<path d="M432 -58.36198440751468L432 0Z" stroke-width="19.2" stroke-linecap="round" stroke-linejoin="round" stroke="#1ef516" transform="matrix(1,0,0,1,0,513.0560913085938)" opacity="0.869513" style="transform:matrix(1, 0, 0, 1, 0, 513.056);opacity:0.869513;animation-play-state:paused" ></path>
<path d="M470.4 -6.079436884403549L470.4 0Z" stroke-width="19.2" stroke-linecap="round" stroke-linejoin="round" stroke="#1ef516" transform="matrix(1,0,0,1,0,538.413818359375)" opacity="0.665364" style="transform:matrix(1, 0, 0, 1, 0, 538.414);opacity:0.665364;animation-play-state:paused" ></path>
<path d="M470.4 -70.7953105161032L470.4 0Z" stroke-width="19.2" stroke-linecap="round" stroke-linejoin="round" stroke="#f81616" transform="matrix(1,0,0,1,0,471.80609130859375)" opacity="1" style="transform:matrix(1, 0, 0, 1, 0, 471.806);animation-play-state:paused" ></path>
<path d="M470.4 -110.5451169052285L470.4 0Z" stroke-width="19.2" stroke-linecap="round" stroke-linejoin="round" stroke="#1ef516" transform="matrix(1,0,0,1,0,430.8863525390625)" opacity="1" style="transform:matrix(1, 0, 0, 1, 0, 430.886);animation-play-state:paused" ></path>
<path d="M508.8 -101.6413225200813L508.8 0Z" stroke-width="19.2" stroke-linecap="round" stroke-linejoin="round" stroke="#1ef516" transform="matrix(1,0,0,1,0,127.4595947265625)" opacity="1" style="transform:matrix(1, 0, 0, 1, 0, 127.46);animation-play-state:paused" ></path>
<path d="M508.8 -91.61666504502136L508.8 0Z" stroke-width="19.2" stroke-linecap="round" stroke-linejoin="round" stroke="#f81616" transform="matrix(1,0,0,1,0,118.90274047851562)" opacity="1" style="transform:matrix(1, 0, 0, 1, 0, 118.903);animation-play-state:paused" ></path>
<path d="M508.8 -4.834148210307831L508.8 0Z" stroke-width="19.2" stroke-linecap="round" stroke-linejoin="round" stroke="#f81616" transform="matrix(1,0,0,1,0,589.494384765625)" opacity="0.254127" style="transform:matrix(1, 0, 0, 1, 0, 589.494);opacity:0.254127;animation-play-state:paused" ></path>
<path d="M547.2 -17.296644567104522L547.2 0Z" stroke-width="19.2" stroke-linecap="round" stroke-linejoin="round" stroke="#f81616" transform="matrix(1,0,0,1,0,378.9071350097656)" opacity="1" style="transform:matrix(1, 0, 0, 1, 0, 378.907);animation-play-state:paused" ></path>
<path d="M547.2 -55.747450224702334L547.2 0Z" stroke-width="19.2" stroke-linecap="round" stroke-linejoin="round" stroke="#f81616" transform="matrix(1,0,0,1,0,594.8845825195312)" opacity="0.210732" style="transform:matrix(1, 0, 0, 1, 0, 594.885);opacity:0.210732;animation-play-state:paused" ></path>
<path d="M547.2 -133.45412727068106L547.2 0Z" stroke-width="19.2" stroke-linecap="round" stroke-linejoin="round" stroke="#f81616" transform="matrix(1,0,0,1,0,489.1554260253906)" opacity="1" style="transform:matrix(1, 0, 0, 1, 0, 489.155);animation-play-state:paused" ></path>
<path d="M585.6 -6.002379668643698L585.6 0Z" stroke-width="19.2" stroke-linecap="round" stroke-linejoin="round" stroke="#f81616" transform="matrix(1,0,0,1,0,210.39329528808594)" opacity="1" style="transform:matrix(1, 0, 0, 1, 0, 210.393);animation-play-state:paused" ></path>
<path d="M585.6 -91.35334572583815L585.6 0Z" stroke-width="19.2" stroke-linecap="round" stroke-linejoin="round" stroke="#f81616" transform="matrix(1,0,0,1,0,251.9093780517578)" opacity="1" style="transform:matrix(1, 0, 0, 1, 0, 251.909);animation-play-state:paused" ></path>
<path d="M585.6 -78.51717960226233L585.6 0Z" stroke-width="19.2" stroke-linecap="round" stroke-linejoin="round" stroke="#f81616" transform="matrix(1,0,0,1,0,425.69781494140625)" opacity="1" style="transform:matrix(1, 0, 0, 1, 0, 425.698);animation-play-state:paused" ></path>
<path d="M624 -137.43125833099475L624 0Z" stroke-width="19.2" stroke-linecap="round" stroke-linejoin="round" stroke="#1ef516" transform="matrix(1,0,0,1,0,405.125244140625)" opacity="1" style="transform:matrix(1, 0, 0, 1, 0, 405.125);animation-play-state:paused" ></path>
<path d="M624 -21.475135200453224L624 0Z" stroke-width="19.2" stroke-linecap="round" stroke-linejoin="round" stroke="#1ef516" transform="matrix(1,0,0,1,0,164.61700439453125)" opacity="1" style="transform:matrix(1, 0, 0, 1, 0, 164.617);animation-play-state:paused" ></path>
<path d="M624 -37.88948241817707L624 0Z" stroke-width="19.2" stroke-linecap="round" stroke-linejoin="round" stroke="#1ef516" transform="matrix(1,0,0,1,0,175.09259033203125)" opacity="1" style="transform:matrix(1, 0, 0, 1, 0, 175.093);animation-play-state:paused" ></path>
<path d="M662.4 -48.46323877269606L662.4 0Z" stroke-width="19.2" stroke-linecap="round" stroke-linejoin="round" stroke="#1ef516" transform="matrix(1,0,0,1,0,228.2416229248047)" opacity="1" style="transform:matrix(1, 0, 0, 1, 0, 228.242);animation-play-state:paused" ></path>
<path d="M662.4 -76.66494011574105L662.4 0Z" stroke-width="19.2" stroke-linecap="round" stroke-linejoin="round" stroke="#1ef516" transform="matrix(1,0,0,1,0,592.4454956054688)" opacity="0.230368" style="transform:matrix(1, 0, 0, 1, 0, 592.445);opacity:0.230368;animation-play-state:paused" ></path>
<path d="M662.4 -81.99056171243865L662.4 0Z" stroke-width="19.2" stroke-linecap="round" stroke-linejoin="round" stroke="#1ef516" transform="matrix(1,0,0,1,0,604.8261108398438)" opacity="0.130695" style="transform:matrix(1, 0, 0, 1, 0, 604.826);opacity:0.130695;animation-play-state:paused" ></path>
<path d="M700.8 -117.49817587112193L700.8 0Z" stroke-width="19.2" stroke-linecap="round" stroke-linejoin="round" stroke="#1ef516" transform="matrix(1,0,0,1,0,503.14813232421875)" opacity="0.949279" style="transform:matrix(1, 0, 0, 1, 0, 503.148);opacity:0.949279;animation-play-state:paused" ></path>
<path d="M700.8 -46.440294392021315L700.8 0Z" stroke-width="19.2" stroke-linecap="round" stroke-linejoin="round" stroke="#f81616" transform="matrix(1,0,0,1,0,49.90974807739258)" opacity="1" style="transform:matrix(1, 0, 0, 1, 0, 49.9097);animation-play-state:paused" ></path>
<path d="M700.8 -79.40751788916532L700.8 0Z" stroke-width="19.2" stroke-linecap="round" stroke-linejoin="round" stroke="#1ef516" transform="matrix(1,0,0,1,0,224.76895141601562)" opacity="1" style="transform:matrix(1, 0, 0, 1, 0, 224.769);animation-play-state:paused" ></path>
<path d="M739.2 -60.50516761075778L739.2 0Z" stroke-width="19.2" stroke-linecap="round" stroke-linejoin="round" stroke="#f81616" transform="matrix(1,0,0,1,0,64.91207885742188)" opacity="1" style="transform:matrix(1, 0, 0, 1, 0, 64.9121);animation-play-state:paused" ></path>
<path d="M739.2 -6.287382445971161L739.2 0Z" stroke-width="19.2" stroke-linecap="round" stroke-linejoin="round" stroke="#1ef516" transform="matrix(1,0,0,1,0,425.9547424316406)" opacity="1" style="transform:matrix(1, 0, 0, 1, 0, 425.955);animation-play-state:paused" ></path>
<path d="M739.2 -119.84489575905172L739.2 0Z" stroke-width="19.2" stroke-linecap="round" stroke-linejoin="round" stroke="#1ef516" transform="matrix(1,0,0,1,0,334.2962646484375)" opacity="1" style="transform:matrix(1, 0, 0, 1, 0, 334.296);animation-play-state:paused" ></path>
<path d="M777.6 -31.08390106978186L777.6 0Z" stroke-width="19.2" stroke-linecap="round" stroke-linejoin="round" stroke="#f81616" transform="matrix(1,0,0,1,0,370.845703125)" opacity="1" style="transform:matrix(1, 0, 0, 1, 0, 370.846);animation-play-state:paused" ></path>
<path d="M777.6 -69.31550853090448L777.6 0Z" stroke-width="19.2" stroke-linecap="round" stroke-linejoin="round" stroke="#f81616" transform="matrix(1,0,0,1,0,366.5406188964844)" opacity="1" style="transform:matrix(1, 0, 0, 1, 0, 366.541);animation-play-state:paused" ></path>
<path d="M777.6 -115.02277217042138L777.6 0Z" stroke-width="19.2" stroke-linecap="round" stroke-linejoin="round" stroke="#f81616" transform="matrix(1,0,0,1,0,494.7301330566406)" opacity="1" style="transform:matrix(1, 0, 0, 1, 0, 494.73);animation-play-state:paused" ></path>
<path d="M816 -56.42960873499396L816 0Z" stroke-width="19.2" stroke-linecap="round" stroke-linejoin="round" stroke="#1ef516" transform="matrix(1,0,0,1,0,79.50741577148438)" opacity="1" style="transform:matrix(1, 0, 0, 1, 0, 79.5074);animation-play-state:paused" ></path>
<path d="M816 -32.4115493543286L816 0Z" stroke-width="19.2" stroke-linecap="round" stroke-linejoin="round" stroke="#f81616" transform="matrix(1,0,0,1,0,276.70428466796875)" opacity="1" style="transform:matrix(1, 0, 0, 1, 0, 276.704);animation-play-state:paused" ></path>
<path d="M816 -0.14016780673409812L816 0Z" stroke-width="19.2" stroke-linecap="round" stroke-linejoin="round" stroke="#f81616" transform="matrix(1,0,0,1,0,389.2729797363281)" opacity="1" style="transform:matrix(1, 0, 0, 1, 0, 389.273);animation-play-state:paused" ></path>
<path d="M854.4 -132.2726426252193L854.4 0Z" stroke-width="19.2" stroke-linecap="round" stroke-linejoin="round" stroke="#f81616" transform="matrix(1,0,0,1,0,544.2230224609375)" opacity="0.618595" style="transform:matrix(1, 0, 0, 1, 0, 544.223);opacity:0.618595;animation-play-state:paused" ></path>
<path d="M854.4 -60.71611365787612L854.4 0Z" stroke-width="19.2" stroke-linecap="round" stroke-linejoin="round" stroke="#1ef516" transform="matrix(1,0,0,1,0,582.4014892578125)" opacity="0.31123" style="transform:matrix(1, 0, 0, 1, 0, 582.401);opacity:0.31123;animation-play-state:paused" ></path>
<path d="M854.4 -32.392596984445845L854.4 0Z" stroke-width="19.2" stroke-linecap="round" stroke-linejoin="round" stroke="#1ef516" transform="matrix(1,0,0,1,0,342.4272766113281)" opacity="1" style="transform:matrix(1, 0, 0, 1, 0, 342.427);animation-play-state:paused" ></path>
<path d="M892.8 -16.699348372101667L892.8 0Z" stroke-width="19.2" stroke-linecap="round" stroke-linejoin="round" stroke="#1ef516" transform="matrix(1,0,0,1,0,234.88943481445312)" opacity="1" style="transform:matrix(1, 0, 0, 1, 0, 234.889);animation-play-state:paused" ></path>
<path d="M892.8 -12.769899679362425L892.8 0Z" stroke-width="19.2" stroke-linecap="round" stroke-linejoin="round" stroke="#f81616" transform="matrix(1,0,0,1,0,275.8075256347656)" opacity="1" style="transform:matrix(1, 0, 0, 1, 0, 275.808);animation-play-state:paused" ></path>
<path d="M892.8 -40.4755730949546L892.8 0Z" stroke-width="19.2" stroke-linecap="round" stroke-linejoin="round" stroke="#1ef516" transform="matrix(1,0,0,1,0,430.7015075683594)" opacity="1" style="transform:matrix(1, 0, 0, 1, 0, 430.702);animation-play-state:paused" ></path>
<path d="M931.1999999999999 -50.321503618495626L931.1999999999999 0Z" stroke-width="19.2" stroke-linecap="round" stroke-linejoin="round" stroke="#1ef516" transform="matrix(1,0,0,1,0,438.0409240722656)" opacity="1" style="transform:matrix(1, 0, 0, 1, 0, 438.041);animation-play-state:paused" ></path>
<path d="M931.1999999999999 -131.81773486385282L931.1999999999999 0Z" stroke-width="19.2" stroke-linecap="round" stroke-linejoin="round" stroke="#1ef516" transform="matrix(1,0,0,1,0,208.06857299804688)" opacity="1" style="transform:matrix(1, 0, 0, 1, 0, 208.069);animation-play-state:paused" ></path>
<path d="M931.1999999999999 -100.27151154565581L931.1999999999999 0Z" stroke-width="19.2" stroke-linecap="round" stroke-linejoin="round" stroke="#f81616" transform="matrix(1,0,0,1,0,134.7906494140625)" opacity="1" style="transform:matrix(1, 0, 0, 1, 0, 134.791);animation-play-state:paused" ></path>
<path d="M969.6 -124.33732458635131L969.6 0Z" stroke-width="19.2" stroke-linecap="round" stroke-linejoin="round" stroke="#1ef516" transform="matrix(1,0,0,1,0,394.0933837890625)" opacity="1" style="transform:matrix(1, 0, 0, 1, 0, 394.093);animation-play-state:paused" ></path>
<path d="M969.6 -74.44775976973324L969.6 0Z" stroke-width="19.2" stroke-linecap="round" stroke-linejoin="round" stroke="#1ef516" transform="matrix(1,0,0,1,0,21.32024383544922)" opacity="1" style="transform:matrix(1, 0, 0, 1, 0, 21.3202);animation-play-state:paused" ></path>
<path d="M969.6 -49.04176103901045L969.6 0Z" stroke-width="19.2" stroke-linecap="round" stroke-linejoin="round" stroke="#f81616" transform="matrix(1,0,0,1,0,146.21267700195312)" opacity="1" style="transform:matrix(1, 0, 0, 1, 0, 146.213);animation-play-state:paused" ></path>
<path d="M1008 -4.872306943969306L1008 0Z" stroke-width="19.2" stroke-linecap="round" stroke-linejoin="round" stroke="#1ef516" transform="matrix(1,0,0,1,0,154.6163787841797)" opacity="1" style="transform:matrix(1, 0, 0, 1, 0, 154.616);animation-play-state:paused" ></path>
<path d="M1008 -114.823871252971L1008 0Z" stroke-width="19.2" stroke-linecap="round" stroke-linejoin="round" stroke="#f81616" transform="matrix(1,0,0,1,0,44.35933303833008)" opacity="1" style="transform:matrix(1, 0, 0, 1, 0, 44.3593);animation-play-state:paused" ></path>
<path d="M1008 -214.23241715671247L1008 0Z" stroke-width="19.2" stroke-linecap="round" stroke-linejoin="round" stroke="#f81616" transform="matrix(1,0,0,1,0,207.0609130859375)" opacity="1" style="transform:matrix(1, 0, 0, 1, 0, 207.061);animation-play-state:paused" ></path>
<path d="M1046.3999999999999 -73.22472743658L1046.3999999999999 0Z" stroke-width="19.2" stroke-linecap="round" stroke-linejoin="round" stroke="#f81616" transform="matrix(1,0,0,1,0,257.2682189941406)" opacity="1" style="transform:matrix(1, 0, 0, 1, 0, 257.268);animation-play-state:paused" ></path>
<path d="M1046.3999999999999 -67.68956571927993L1046.3999999999999 0Z" stroke-width="19.2" stroke-linecap="round" stroke-linejoin="round" stroke="#f81616" transform="matrix(1,0,0,1,0,578.1978759765625)" opacity="0.345072" style="transform:matrix(1, 0, 0, 1, 0, 578.198);opacity:0.345072;animation-play-state:paused" ></path>
<path d="M1046.3999999999999 -45.32637916231033L1046.3999999999999 0Z" stroke-width="19.2" stroke-linecap="round" stroke-linejoin="round" stroke="#f81616" transform="matrix(1,0,0,1,0,226.90721130371094)" opacity="1" style="transform:matrix(1, 0, 0, 1, 0, 226.907);animation-play-state:paused" ></path>
<path d="M1084.8 -72.09655465949618L1084.8 0Z" stroke-width="19.2" stroke-linecap="round" stroke-linejoin="round" stroke="#1ef516" transform="matrix(1,0,0,1,0,104.46905517578125)" opacity="1" style="transform:matrix(1, 0, 0, 1, 0, 104.469);animation-play-state:paused" ></path>
<path d="M1084.8 -29.598427464479755L1084.8 0Z" stroke-width="19.2" stroke-linecap="round" stroke-linejoin="round" stroke="#f81616" transform="matrix(1,0,0,1,0,289.14764404296875)" opacity="1" style="transform:matrix(1, 0, 0, 1, 0, 289.148);animation-play-state:paused" ></path>
<path d="M1084.8 -77.94368609023513L1084.8 0Z" stroke-width="19.2" stroke-linecap="round" stroke-linejoin="round" stroke="#f81616" transform="matrix(1,0,0,1,0,380.1311950683594)" opacity="1" style="transform:matrix(1, 0, 0, 1, 0, 380.131);animation-play-state:paused" ></path>
<path d="M1123.1999999999998 -59.26494047781307L1123.1999999999998 0Z" stroke-width="19.2" stroke-linecap="round" stroke-linejoin="round" stroke="#f81616" transform="matrix(1,0,0,1,0,201.8306427001953)" opacity="1" style="transform:matrix(1, 0, 0, 1, 0, 201.831);animation-play-state:paused" ></path>
<path d="M1123.1999999999998 -7.187234136472398L1123.1999999999998 0Z" stroke-width="19.2" stroke-linecap="round" stroke-linejoin="round" stroke="#1ef516" transform="matrix(1,0,0,1,0,437.8663024902344)" opacity="1" style="transform:matrix(1, 0, 0, 1, 0, 437.866);animation-play-state:paused" ></path>
<path d="M1123.1999999999998 -23.844874880611314L1123.1999999999998 0Z" stroke-width="19.2" stroke-linecap="round" stroke-linejoin="round" stroke="#f81616" transform="matrix(1,0,0,1,0,365.14288330078125)" opacity="1" style="transform:matrix(1, 0, 0, 1, 0, 365.143);animation-play-state:paused" ></path>
<path d="M1161.6 -37.07452382292831L1161.6 0Z" stroke-width="19.2" stroke-linecap="round" stroke-linejoin="round" stroke="#f81616" transform="matrix(1,0,0,1,0,541.933837890625)" opacity="0.637025" style="transform:matrix(1, 0, 0, 1, 0, 541.934);opacity:0.637025;animation-play-state:paused" ></path>
<path d="M1161.6 -76.48051311334711L1161.6 0Z" stroke-width="19.2" stroke-linecap="round" stroke-linejoin="round" stroke="#f81616" transform="matrix(1,0,0,1,0,440.7667541503906)" opacity="1" style="transform:matrix(1, 0, 0, 1, 0, 440.767);animation-play-state:paused" ></path>
<path d="M1161.6 -16.15038771701802L1161.6 0Z" stroke-width="19.2" stroke-linecap="round" stroke-linejoin="round" stroke="#f81616" transform="matrix(1,0,0,1,0,159.31678771972656)" opacity="1" style="transform:matrix(1, 0, 0, 1, 0, 159.317);animation-play-state:paused" ></path>
<path d="M1199.9999999999998 -52.37800516362768L1199.9999999999998 0Z" stroke-width="19.2" stroke-linecap="round" stroke-linejoin="round" stroke="#f81616" transform="matrix(1,0,0,1,0,280.5548400878906)" opacity="1" style="transform:matrix(1, 0, 0, 1, 0, 280.555);animation-play-state:paused" ></path>
<path d="M1199.9999999999998 -74.05172491201756L1199.9999999999998 0Z" stroke-width="19.2" stroke-linecap="round" stroke-linejoin="round" stroke="#1ef516" transform="matrix(1,0,0,1,0,328.00030517578125)" opacity="1" style="transform:matrix(1, 0, 0, 1, 0, 328);animation-play-state:paused" ></path>
<path d="M1199.9999999999998 -28.90781451263865L1199.9999999999998 0Z" stroke-width="19.2" stroke-linecap="round" stroke-linejoin="round" stroke="#1ef516" transform="matrix(1,0,0,1,0,558.07470703125)" opacity="0.507079" style="transform:matrix(1, 0, 0, 1, 0, 558.075);opacity:0.507079;animation-play-state:paused" ></path>
<path d="M1238.3999999999999 -58.8696025904901L1238.3999999999999 0Z" stroke-width="19.2" stroke-linecap="round" stroke-linejoin="round" stroke="#1ef516" transform="matrix(1,0,0,1,0,384.9412841796875)" opacity="1" style="transform:matrix(1, 0, 0, 1, 0, 384.941);animation-play-state:paused" ></path>
<path d="M1238.3999999999999 -133.01245511090747L1238.3999999999999 0Z" stroke-width="19.2" stroke-linecap="round" stroke-linejoin="round" stroke="#f81616" transform="matrix(1,0,0,1,0,618.2846069335938)" opacity="0.022344" style="transform:matrix(1, 0, 0, 1, 0, 618.285);opacity:0.022344;animation-play-state:paused" ></path>
<path d="M1238.3999999999999 -43.45454380637966L1238.3999999999999 0Z" stroke-width="19.2" stroke-linecap="round" stroke-linejoin="round" stroke="#f81616" transform="matrix(1,0,0,1,0,379.61029052734375)" opacity="1" style="transform:matrix(1, 0, 0, 1, 0, 379.61);animation-play-state:paused" ></path>
<path d="M1276.8 -88.14316707663966L1276.8 0Z" stroke-width="19.2" stroke-linecap="round" stroke-linejoin="round" stroke="#1ef516" transform="matrix(1,0,0,1,0,165.29251098632812)" opacity="1" style="transform:matrix(1, 0, 0, 1, 0, 165.293);animation-play-state:paused" ></path>
<path d="M1276.8 -8.360218276808155L1276.8 0Z" stroke-width="19.2" stroke-linecap="round" stroke-linejoin="round" stroke="#f81616" transform="matrix(1,0,0,1,0,305.8964538574219)" opacity="1" style="transform:matrix(1, 0, 0, 1, 0, 305.896);animation-play-state:paused" ></path>
<path d="M1276.8 -49.07925317903573L1276.8 0Z" stroke-width="19.2" stroke-linecap="round" stroke-linejoin="round" stroke="#1ef516" transform="matrix(1,0,0,1,0,416.5256652832031)" opacity="1" style="transform:matrix(1, 0, 0, 1, 0, 416.526);animation-play-state:paused" ></path>
<path d="M1315.1999999999998 -77.11898530732651L1315.1999999999998 0Z" stroke-width="19.2" stroke-linecap="round" stroke-linejoin="round" stroke="#1ef516" transform="matrix(1,0,0,1,0,227.75685119628906)" opacity="1" style="transform:matrix(1, 0, 0, 1, 0, 227.757);animation-play-state:paused" ></path>
<path d="M1315.1999999999998 -27.548020338475908L1315.1999999999998 0Z" stroke-width="19.2" stroke-linecap="round" stroke-linejoin="round" stroke="#1ef516" transform="matrix(1,0,0,1,0,461.12164306640625)" opacity="1" style="transform:matrix(1, 0, 0, 1, 0, 461.122);animation-play-state:paused" ></path>
<path d="M1315.1999999999998 -40.88071410399789L1315.1999999999998 0Z" stroke-width="19.2" stroke-linecap="round" stroke-linejoin="round" stroke="#f81616" transform="matrix(1,0,0,1,0,271.6870422363281)" opacity="1" style="transform:matrix(1, 0, 0, 1, 0, 271.687);animation-play-state:paused" ></path>
<path d="M1353.6 -128.4652658593477L1353.6 0Z" stroke-width="19.2" stroke-linecap="round" stroke-linejoin="round" stroke="#f81616" transform="matrix(1,0,0,1,0,366.9560241699219)" opacity="1" style="transform:matrix(1, 0, 0, 1, 0, 366.956);animation-play-state:paused" ></path>
<path d="M1353.6 -16.770947602992237L1353.6 0Z" stroke-width="19.2" stroke-linecap="round" stroke-linejoin="round" stroke="#f81616" transform="matrix(1,0,0,1,0,32.04185485839844)" opacity="1" style="transform:matrix(1, 0, 0, 1, 0, 32.0419);animation-play-state:paused" ></path>
<path d="M1353.6 -46.18081573676318L1353.6 0Z" stroke-width="19.2" stroke-linecap="round" stroke-linejoin="round" stroke="#f81616" transform="matrix(1,0,0,1,0,613.0277709960938)" opacity="0.0646654" style="transform:matrix(1, 0, 0, 1, 0, 613.028);opacity:0.0646654;animation-play-state:paused" ></path>
<path d="M1391.9999999999998 -0.6193926758242014L1391.9999999999998 0Z" stroke-width="19.2" stroke-linecap="round" stroke-linejoin="round" stroke="#f81616" transform="matrix(1,0,0,1,0,584.7635498046875)" opacity="0.292214" style="transform:matrix(1, 0, 0, 1, 0, 584.764);opacity:0.292214;animation-play-state:paused" ></path>
<path d="M1391.9999999999998 -70.304972356691L1391.9999999999998 0Z" stroke-width="19.2" stroke-linecap="round" stroke-linejoin="round" stroke="#f81616" transform="matrix(1,0,0,1,0,149.81060791015625)" opacity="1" style="transform:matrix(1, 0, 0, 1, 0, 149.811);animation-play-state:paused" ></path>
<path d="M1391.9999999999998 -39.247460304159176L1391.9999999999998 0Z" stroke-width="19.2" stroke-linecap="round" stroke-linejoin="round" stroke="#1ef516" transform="matrix(1,0,0,1,0,561.2625122070312)" opacity="0.481414" style="transform:matrix(1, 0, 0, 1, 0, 561.263);opacity:0.481414;animation-play-state:paused" ></path>
<path d="M1430.3999999999999 -146.36209079373657L1430.3999999999999 0Z" stroke-width="19.2" stroke-linecap="round" stroke-linejoin="round" stroke="#f81616" transform="matrix(1,0,0,1,0,363.5239562988281)" opacity="1" style="transform:matrix(1, 0, 0, 1, 0, 363.524);animation-play-state:paused" ></path>
<path d="M1430.3999999999999 -119.11929121632056L1430.3999999999999 0Z" stroke-width="19.2" stroke-linecap="round" stroke-linejoin="round" stroke="#f81616" transform="matrix(1,0,0,1,0,567.04736328125)" opacity="0.434842" style="transform:matrix(1, 0, 0, 1, 0, 567.047);opacity:0.434842;animation-play-state:paused" ></path>
<path d="M1430.3999999999999 -115.9072525731608L1430.3999999999999 0Z" stroke-width="19.2" stroke-linecap="round" stroke-linejoin="round" stroke="#1ef516" transform="matrix(1,0,0,1,0,299.6200866699219)" opacity="1" style="transform:matrix(1, 0, 0, 1, 0, 299.62);animation-play-state:paused" ></path>
<path d="M1468.8 -15.085603916946638L1468.8 0Z" stroke-width="19.2" stroke-linecap="round" stroke-linejoin="round" stroke="#f81616" transform="matrix(1,0,0,1,0,584.3717041015625)" opacity="0.295368" style="transform:matrix(1, 0, 0, 1, 0, 584.372);opacity:0.295368;animation-play-state:paused" ></path>
<path d="M1468.8 -71.28986946370424L1468.8 0Z" stroke-width="19.2" stroke-linecap="round" stroke-linejoin="round" stroke="#1ef516" transform="matrix(1,0,0,1,0,469.1042175292969)" opacity="1" style="transform:matrix(1, 0, 0, 1, 0, 469.104);animation-play-state:paused" ></path>
<path d="M1468.8 -20.167549640565994L1468.8 0Z" stroke-width="19.2" stroke-linecap="round" stroke-linejoin="round" stroke="#f81616" transform="matrix(1,0,0,1,0,307.32733154296875)" opacity="1" style="transform:matrix(1, 0, 0, 1, 0, 307.327);animation-play-state:paused" ></path>
<path d="M1507.1999999999998 -109.03238823996071L1507.1999999999998 0Z" stroke-width="19.2" stroke-linecap="round" stroke-linejoin="round" stroke="#f81616" transform="matrix(1,0,0,1,0,113.50251007080078)" opacity="1" style="transform:matrix(1, 0, 0, 1, 0, 113.503);animation-play-state:paused" ></path>
<path d="M1507.1999999999998 -64.09966390667978L1507.1999999999998 0Z" stroke-width="19.2" stroke-linecap="round" stroke-linejoin="round" stroke="#1ef516" transform="matrix(1,0,0,1,0,607.997802734375)" opacity="0.10516" style="transform:matrix(1, 0, 0, 1, 0, 607.998);opacity:0.10516;animation-play-state:paused" ></path>
<path d="M1507.1999999999998 -102.56002441509918L1507.1999999999998 0Z" stroke-width="19.2" stroke-linecap="round" stroke-linejoin="round" stroke="#1ef516" transform="matrix(1,0,0,1,0,256.4822692871094)" opacity="1" style="transform:matrix(1, 0, 0, 1, 0, 256.482);animation-play-state:paused" ></path>
<path d="M1545.6 -58.23697897357215L1545.6 0Z" stroke-width="19.2" stroke-linecap="round" stroke-linejoin="round" stroke="#1ef516" transform="matrix(1,0,0,1,0,333.1667785644531)" opacity="1" style="transform:matrix(1, 0, 0, 1, 0, 333.167);animation-play-state:paused" ></path>
<path d="M1545.6 -71.66213455522302L1545.6 0Z" stroke-width="19.2" stroke-linecap="round" stroke-linejoin="round" stroke="#f81616" transform="matrix(1,0,0,1,0,499.7186584472656)" opacity="0.976889" style="transform:matrix(1, 0, 0, 1, 0, 499.719);opacity:0.976889;animation-play-state:paused" ></path>
<path d="M1545.6 -74.36352901665396L1545.6 0Z" stroke-width="19.2" stroke-linecap="round" stroke-linejoin="round" stroke="#1ef516" transform="matrix(1,0,0,1,0,454.5669860839844)" opacity="1" style="transform:matrix(1, 0, 0, 1, 0, 454.567);animation-play-state:paused" ></path>
<path d="M1583.9999999999998 -72.76932101613784L1583.9999999999998 0Z" stroke-width="19.2" stroke-linecap="round" stroke-linejoin="round" stroke="#1ef516" transform="matrix(1,0,0,1,0,43.982601165771484)" opacity="1" style="transform:matrix(1, 0, 0, 1, 0, 43.9826);animation-play-state:paused" ></path>
<path d="M1583.9999999999998 -72.52986201318163L1583.9999999999998 0Z" stroke-width="19.2" stroke-linecap="round" stroke-linejoin="round" stroke="#1ef516" transform="matrix(1,0,0,1,0,166.234619140625)" opacity="1" style="transform:matrix(1, 0, 0, 1, 0, 166.235);animation-play-state:paused" ></path>
<path d="M1583.9999999999998 -90.45855132731413L1583.9999999999998 0Z" stroke-width="19.2" stroke-linecap="round" stroke-linejoin="round" stroke="#1ef516" transform="matrix(1,0,0,1,0,326.19537353515625)" opacity="1" style="transform:matrix(1, 0, 0, 1, 0, 326.195);animation-play-state:paused" ></path>
<path d="M1622.3999999999999 -104.27331529924413L1622.3999999999999 0Z" stroke-width="19.2" stroke-linecap="round" stroke-linejoin="round" stroke="#1ef516" transform="matrix(1,0,0,1,0,391.4304504394531)" opacity="1" style="transform:matrix(1, 0, 0, 1, 0, 391.43);animation-play-state:paused" ></path>
<path d="M1622.3999999999999 -21.974640578991966L1622.3999999999999 0Z" stroke-width="19.2" stroke-linecap="round" stroke-linejoin="round" stroke="#1ef516" transform="matrix(1,0,0,1,0,513.2085571289062)" opacity="0.868285" style="transform:matrix(1, 0, 0, 1, 0, 513.209);opacity:0.868285;animation-play-state:paused" ></path>
<path d="M1622.3999999999999 -52.227396970483824L1622.3999999999999 0Z" stroke-width="19.2" stroke-linecap="round" stroke-linejoin="round" stroke="#1ef516" transform="matrix(1,0,0,1,0,130.33775329589844)" opacity="1" style="transform:matrix(1, 0, 0, 1, 0, 130.338);animation-play-state:paused" ></path>
<path d="M1660.8 -18.87018834929404L1660.8 0Z" stroke-width="19.2" stroke-linecap="round" stroke-linejoin="round" stroke="#f81616" transform="matrix(1,0,0,1,0,612.400146484375)" opacity="0.0697184" style="transform:matrix(1, 0, 0, 1, 0, 612.4);opacity:0.0697184;animation-play-state:paused" ></path>
<path d="M1660.8 -43.59877262322334L1660.8 0Z" stroke-width="19.2" stroke-linecap="round" stroke-linejoin="round" stroke="#f81616" transform="matrix(1,0,0,1,0,208.3564453125)" opacity="1" style="transform:matrix(1, 0, 0, 1, 0, 208.356);animation-play-state:paused" ></path>
<path d="M1660.8 -77.04009061800025L1660.8 0Z" stroke-width="19.2" stroke-linecap="round" stroke-linejoin="round" stroke="#f81616" transform="matrix(1,0,0,1,0,394.3717346191406)" opacity="1" style="transform:matrix(1, 0, 0, 1, 0, 394.372);animation-play-state:paused" ></path>
<path d="M1699.1999999999998 -98.83147494313744L1699.1999999999998 0Z" stroke-width="19.2" stroke-linecap="round" stroke-linejoin="round" stroke="#1ef516" transform="matrix(1,0,0,1,0,495.0697326660156)" opacity="1" style="transform:matrix(1, 0, 0, 1, 0, 495.07);animation-play-state:paused" ></path>
<path d="M1699.1999999999998 -17.115150830144557L1699.1999999999998 0Z" stroke-width="19.2" stroke-linecap="round" stroke-linejoin="round" stroke="#f81616" transform="matrix(1,0,0,1,0,207.67117309570312)" opacity="1" style="transform:matrix(1, 0, 0, 1, 0, 207.671);animation-play-state:paused" ></path>
<path d="M1699.1999999999998 -71.32649520164341L1699.1999999999998 0Z" stroke-width="19.2" stroke-linecap="round" stroke-linejoin="round" stroke="#f81616" transform="matrix(1,0,0,1,0,265.21978759765625)" opacity="1" style="transform:matrix(1, 0, 0, 1, 0, 265.22);animation-play-state:paused" ></path>
<path d="M1737.6 -114.94988689408638L1737.6 0Z" stroke-width="19.2" stroke-linecap="round" stroke-linejoin="round" stroke="#f81616" transform="matrix(1,0,0,1,0,364.2660827636719)" opacity="1" style="transform:matrix(1, 0, 0, 1, 0, 364.266);animation-play-state:paused" ></path>
<path d="M1737.6 -27.911916432422004L1737.6 0Z" stroke-width="19.2" stroke-linecap="round" stroke-linejoin="round" stroke="#f81616" transform="matrix(1,0,0,1,0,517.6837768554688)" opacity="0.832256" style="transform:matrix(1, 0, 0, 1, 0, 517.684);opacity:0.832256;animation-play-state:paused" ></path>
<path d="M1737.6 -4.662189265654888L1737.6 0Z" stroke-width="19.2" stroke-linecap="round" stroke-linejoin="round" stroke="#f81616" transform="matrix(1,0,0,1,0,216.18247985839844)" opacity="1" style="transform:matrix(1, 0, 0, 1, 0, 216.182);animation-play-state:paused" ></path>
<path d="M1775.9999999999998 -9.591704602338723L1775.9999999999998 0Z" stroke-width="19.2" stroke-linecap="round" stroke-linejoin="round" stroke="#1ef516" transform="matrix(1,0,0,1,0,326.47894287109375)" opacity="1" style="transform:matrix(1, 0, 0, 1, 0, 326.479);animation-play-state:paused" ></path>
<path d="M1775.9999999999998 -105.43581470243225L1775.9999999999998 0Z" stroke-width="19.2" stroke-linecap="round" stroke-linejoin="round" stroke="#1ef516" transform="matrix(1,0,0,1,0,89.46866607666016)" opacity="1" style="transform:matrix(1, 0, 0, 1, 0, 89.4687);animation-play-state:paused" ></path>
<path d="M1775.9999999999998 -52.76614767011779L1775.9999999999998 0Z" stroke-width="19.2" stroke-linecap="round" stroke-linejoin="round" stroke="#f81616" transform="matrix(1,0,0,1,0,571.1416625976562)" opacity="0.40188" style="transform:matrix(1, 0, 0, 1, 0, 571.142);opacity:0.40188;animation-play-state:paused" ></path>
<path d="M1814.3999999999999 -35.0381514151959L1814.3999999999999 0Z" stroke-width="19.2" stroke-linecap="round" stroke-linejoin="round" stroke="#f81616" transform="matrix(1,0,0,1,0,472.83050537109375)" opacity="1" style="transform:matrix(1, 0, 0, 1, 0, 472.831);animation-play-state:paused" ></path>
<path d="M1814.3999999999999 -49.5280569504248L1814.3999999999999 0Z" stroke-width="19.2" stroke-linecap="round" stroke-linejoin="round" stroke="#f81616" transform="matrix(1,0,0,1,0,114.89262390136719)" opacity="1" style="transform:matrix(1, 0, 0, 1, 0, 114.893);animation-play-state:paused" ></path>
<path d="M1814.3999999999999 -23.912129582822672L1814.3999999999999 0Z" stroke-width="19.2" stroke-linecap="round" stroke-linejoin="round" stroke="#1ef516" transform="matrix(1,0,0,1,0,241.52227783203125)" opacity="1" style="transform:matrix(1, 0, 0, 1, 0, 241.522);animation-play-state:paused" ></path>
<path d="M1852.7999999999997 -118.36624554185437L1852.7999999999997 0Z" stroke-width="19.2" stroke-linecap="round" stroke-linejoin="round" stroke="#f81616" transform="matrix(1,0,0,1,0,533.3241577148438)" opacity="0.706339" style="transform:matrix(1, 0, 0, 1, 0, 533.324);opacity:0.706339;animation-play-state:paused" ></path>
<path d="M1852.7999999999997 -63.681268860787895L1852.7999999999997 0Z" stroke-width="19.2" stroke-linecap="round" stroke-linejoin="round" stroke="#f81616" transform="matrix(1,0,0,1,0,582.1614379882812)" opacity="0.313163" style="transform:matrix(1, 0, 0, 1, 0, 582.161);opacity:0.313163;animation-play-state:paused" ></path>
<path d="M1852.7999999999997 -84.82049920119061L1852.7999999999997 0Z" stroke-width="19.2" stroke-linecap="round" stroke-linejoin="round" stroke="#f81616" transform="matrix(1,0,0,1,0,319.0313720703125)" opacity="1" style="transform:matrix(1, 0, 0, 1, 0, 319.031);animation-play-state:paused" ></path>
<path d="M1891.1999999999998 -108.0401473956299L1891.1999999999998 0Z" stroke-width="19.2" stroke-linecap="round" stroke-linejoin="round" stroke="#f81616" transform="matrix(1,0,0,1,0,112.06768035888672)" opacity="1" style="transform:matrix(1, 0, 0, 1, 0, 112.068);animation-play-state:paused" ></path>
<path d="M1891.1999999999998 -64.867318431061L1891.1999999999998 0Z" stroke-width="19.2" stroke-linecap="round" stroke-linejoin="round" stroke="#1ef516" transform="matrix(1,0,0,1,0,557.6781005859375)" opacity="0.510272" style="transform:matrix(1, 0, 0, 1, 0, 557.678);opacity:0.510272;animation-play-state:paused" ></path>
<path d="M1891.1999999999998 -87.6051222551032L1891.1999999999998 0Z" stroke-width="19.2" stroke-linecap="round" stroke-linejoin="round" stroke="#1ef516" transform="matrix(1,0,0,1,0,524.1612548828125)" opacity="0.780108" style="transform:matrix(1, 0, 0, 1, 0, 524.161);opacity:0.780108;animation-play-state:paused" ></path></g></svg>